<svg>
    <simbol id="logo" width="633.000000" height="251.000000" viewBox="0 0 633 251" fill="none" xmlns="http://www.w3.org/2000/svg" xmlns:xlink="http://www.w3.org/1999/xlink">
        <path id="Vector" d="M208.6 52.84C208.6 82.02 183.78 105.68 153.16 105.68C122.54 105.68 97.72 82.02 97.72 52.84C97.72 23.65 122.54 0 153.16 0C183.78 0 208.6 23.65 208.6 52.84Z" fill="#C15191" fill-opacity="1.000000" fill-rule="evenodd"/>
        <path id="Vector" d="M30.86 31.03L0 31.03L0 6.38L91.78 6.38L91.78 31.03L60.87 31.03L60.87 98.86L30.66 98.86L30.86 31.03Z" fill="#1D1D1B" fill-opacity="1.000000" fill-rule="evenodd"/>
        <path id="Vector" d="M317.7 98.86L287.49 98.86L287.49 76.28C281.17 79.01 274.29 80.36 267.35 80.22C238.15 80.22 221.23 67.92 221.23 40.06L221.23 6.43L251.44 6.43L251.44 41.26C251.44 51.88 257.49 56.59 268.21 56.59C274.91 56.62 281.53 55.23 287.6 52.5L287.6 6.38L317.81 6.38L317.7 98.86Z" fill="#1D1D1B" fill-opacity="1.000000" fill-rule="evenodd"/>
        <path id="Vector" d="M332.31 6.38L362.52 6.38L362.52 40.54L373.74 40.54L397.01 6.38L430.64 6.38L398.41 50.53L433.01 98.86L397.76 98.86L373.19 63.7L362.11 63.7L362.11 98.86L332.31 98.86L332.31 6.38Z" fill="#1D1D1B" fill-opacity="1.000000" fill-rule="evenodd"/>
        <path id="Vector" d="M540.65 98.86L510.69 98.86L510.69 50.39L472.43 98.86L442.22 98.86L442.22 6.38L472.43 6.38L472.43 55.58L510.69 6.38L540.65 6.38L540.65 98.86Z" fill="#1D1D1B" fill-opacity="1.000000" fill-rule="evenodd"/>
        <path id="Vector" d="M33.88 191.63L49.74 191.63C57.39 191.63 62.28 187.45 62.28 182.02C62.28 176.59 57.24 173.52 47.68 173.52C38.11 173.52 30.76 177.84 30.76 184.52L2.81 182.55C5.28 163.33 19.78 151.13 50.55 151.13C75.72 151.13 89.97 161.84 89.97 177.12C90.15 181.87 88.8 186.56 86.1 190.56C83.4 194.55 79.48 197.66 74.87 199.46C86.5 202.92 94 209.83 94 222.28C94 238.32 79.9 250.04 51.6 250.04C19.38 249.8 5.28 237.65 2.81 218.53L30.76 216.18C30.76 222.47 38.51 227.13 48.83 227.13C59.16 227.13 64.9 223.96 64.9 218C64.9 212.81 58.4 209.26 49.14 209.26L34.03 209.26L33.88 191.63Z" fill="#1D1D1B" fill-opacity="1.000000" fill-rule="evenodd"/>
        <path id="Vector" d="M107.34 154.25L163.18 154.25C185.94 154.25 203.11 166.26 203.11 190.91C203.11 215.55 185.94 227.42 163.18 227.42L137.35 227.42L137.35 246.63L107.14 246.63L107.34 154.25ZM137.55 178.94L137.55 202.96L160.26 202.96C167.16 202.96 173.2 200.27 173.2 191.29C173.36 189.64 173.13 187.98 172.54 186.42C171.94 184.87 170.99 183.46 169.75 182.3C168.51 181.14 167.01 180.26 165.37 179.72C163.73 179.18 161.98 179 160.26 179.18L137.55 178.94Z" fill="#1D1D1B" fill-opacity="1.000000" fill-rule="evenodd"/>
        <path id="Vector" d="M214.94 154.25L297.56 154.25L297.56 178.94L244.95 178.94L244.95 190.43L293.13 190.43L293.13 210.65L244.95 210.65L244.95 222.08L297.56 222.08L297.56 246.78L214.94 246.78L214.94 154.25Z" fill="#1D1D1B" fill-opacity="1.000000" fill-rule="evenodd"/>
        <path id="Vector" d="M381.25 212.86L341.97 212.86L341.97 246.78L312.17 246.78L312.17 154.25L342.38 154.25L342.38 188.22L381.65 188.22L381.65 154.25L411.86 154.25L411.86 246.78L381.65 246.78L381.25 212.86Z" fill="#1D1D1B" fill-opacity="1.000000" fill-rule="evenodd"/>
        <path id="Vector" d="M523.89 246.78L493.68 246.78L493.68 198.3L455.41 246.78L425.65 246.78L425.65 154.25L455.61 154.25L455.61 203.49L493.88 154.25L524.09 154.25L523.89 246.78Z" fill="#1D1D1B" fill-opacity="1.000000" fill-rule="evenodd"/>
        <path id="Vector" d="M633 246.78L602.78 246.78L602.78 224.1L585.97 224.1L569.56 246.78L534.31 246.78L557.17 217.95C550.77 215.65 545.29 211.47 541.53 206.02C537.77 200.56 535.91 194.11 536.22 187.59C536.22 163.57 553.04 153.96 575.14 153.96L632.89 153.96L633 246.78ZM577.96 178.94C576.41 178.77 574.84 178.93 573.37 179.42C571.89 179.9 570.55 180.69 569.44 181.73C568.32 182.77 567.46 184.03 566.93 185.43C566.39 186.83 566.19 188.32 566.33 189.8C566.33 196.96 570.71 200.13 577.96 200.13L603.14 200.13L603.14 178.94L577.96 178.94Z" fill="#1D1D1B" fill-opacity="1.000000" fill-rule="evenodd"/>
        <path id="Vector" d="M173.65 190.28C173.65 201.74 163.89 211.04 151.85 211.04C139.81 211.04 130.05 201.74 130.05 190.28C130.05 178.82 139.81 169.53 151.85 169.53C163.89 169.53 173.65 178.82 173.65 190.28Z" fill="#C15191" fill-opacity="1.000000" fill-rule="evenodd"/>
        <path id="Vector" d="M607.42 188.22C607.42 199.68 597.66 208.97 585.62 208.97C573.58 208.97 563.81 199.68 563.81 188.22C563.81 176.76 573.58 167.46 585.62 167.46C597.66 167.46 607.42 176.76 607.42 188.22Z" fill="#C15191" fill-opacity="1.000000" fill-rule="evenodd"/>
    </simbol>
</svg>