<svg width="952" height="988" viewBox="0 0 952 988" fill="none" xmlns="http://www.w3.org/2000/svg" xmlns:xlink="http://www.w3.org/1999/xlink">
<path d="M110.62,221.187C171.682,221.187 221.183,171.749 221.183,110.764C221.183,49.779 171.682,0.341 110.62,0.341C49.558,0.341 0.057,49.779 0.057,110.764C0.057,171.749 49.558,221.187 110.62,221.187Z" fill="#FFFFFF"/>
<path d="M366.548,220.846C427.61,220.846 477.112,171.407 477.112,110.423C477.112,49.438 427.61,0 366.548,0C305.486,0 255.986,49.438 255.986,110.423C255.986,171.407 305.486,220.846 366.548,220.846Z" fill="#FFFFFF"/>
<path d="M366.89,476.45C427.952,476.45 477.453,427.012 477.453,366.027C477.453,305.042 427.952,255.604 366.89,255.604C305.828,255.604 256.327,305.042 256.327,366.027C256.327,427.012 305.828,476.45 366.89,476.45Z" fill="#FFFFFF"/>
<path d="M110.563,476.735C171.625,476.735 221.126,427.296 221.126,366.312C221.126,305.327 171.625,255.889 110.563,255.889C49.501,255.889 0,305.327 0,366.312C0,427.296 49.501,476.735 110.563,476.735Z" fill="#FFFFFF"/>
<path d="M110.62,732.226C171.682,732.226 221.183,682.787 221.183,621.802C221.183,560.818 171.682,511.38 110.62,511.38C49.558,511.38 0.057,560.818 0.057,621.802C0.057,682.787 49.558,732.226 110.62,732.226Z" fill="#C15191"/>
<path d="M354.814,615.317C373.689,615.317 388.991,600.035 388.991,581.183C388.991,562.331 373.689,547.049 354.814,547.049C335.939,547.049 320.637,562.331 320.637,581.183C320.637,600.035 335.939,615.317 354.814,615.317Z" fill="#C15191"/>
<path d="M110.676,987.034C171.738,987.034 221.239,937.595 221.239,876.611C221.239,815.626 171.738,766.188 110.676,766.188C49.614,766.188 0.113,815.626 0.113,876.611C0.113,937.595 49.614,987.034 110.676,987.034Z" fill="#FFFFFF"/>
<path d="M366.263,988.001C427.325,988.001 476.827,938.562 476.827,877.577C476.827,816.593 427.325,767.155 366.263,767.155C305.201,767.155 255.701,816.593 255.701,877.577C255.701,938.562 305.201,988.001 366.263,988.001Z" fill="#FFFFFF"/>
<path d="M841.437,731.827C902.499,731.827 952.001,682.389 952.001,621.404C952.001,560.419 902.499,510.981 841.437,510.981C780.375,510.981 730.875,560.419 730.875,621.404C730.875,682.389 780.375,731.827 841.437,731.827Z" fill="#C15191"/>
<path d="M622.784,682.39C630.891,682.39 637.463,675.83 637.463,667.738C637.463,659.645 630.891,653.085 622.784,653.085C614.678,653.085 608.106,659.645 608.106,667.738C608.106,675.83 614.678,682.39 622.784,682.39Z" fill="#C15191"/>
<path d="M350.185,682.39C358.292,682.39 364.863,676.767 364.863,669.83C364.863,662.894 358.292,657.271 350.185,657.271C342.078,657.271 335.507,662.894 335.507,669.83C335.507,676.767 342.078,682.39 350.185,682.39Z" fill="#C15191"/>
<path d="M352.282,615.407C370.812,615.407 385.833,599.475 385.833,579.822C385.833,560.169 370.812,544.237 352.282,544.237C333.752,544.237 318.731,560.169 318.731,579.822C318.731,599.475 333.752,615.407 352.282,615.407Z" fill="#C15191"/>
</svg>
