<?xml version="1.0" standalone="no"?>
<!DOCTYPE svg PUBLIC "-//W3C//DTD SVG 20010904//EN"
 "http://www.w3.org/TR/2001/REC-SVG-20010904/DTD/svg10.dtd">
<svg version="1.0" xmlns="http://www.w3.org/2000/svg"
 width="700.000000pt" height="700.000000pt" viewBox="0 0 700.000000 700.000000"
 preserveAspectRatio="xMidYMid meet">
<metadata>
Created by potrace 1.14, written by Peter Selinger 2001-2017
</metadata>
<g transform="translate(0.000000,700.000000) scale(0.100000,-0.100000)"
fill="#000000" stroke="none">
<path d="M3268 6990 c-1073 -80 -2025 -617 -2633 -1485 -788 -1125 -843 -2612
-141 -3793 746 -1253 2196 -1912 3636 -1652 1375 249 2479 1312 2784 2680 126
570 106 1181 -59 1750 -124 426 -349 853 -643 1220 -105 130 -383 407 -517
513 -527 421 -1147 679 -1800 751 -178 20 -475 27 -627 16z m482 -1361 c403
-42 812 -220 1140 -496 333 -281 584 -684 690 -1112 91 -366 82 -783 -26
-1141 -117 -388 -358 -755 -664 -1013 -279 -234 -607 -395 -950 -466 -292 -61
-620 -58 -920 9 -433 96 -865 358 -1151 698 -268 318 -438 698 -494 1102 -21
151 -21 429 0 580 78 563 376 1074 825 1414 454 343 974 486 1550 425z"/>
<path d="M3395 4229 c-275 -42 -502 -231 -590 -489 -116 -342 21 -699 341
-886 116 -68 300 -103 441 -84 491 65 776 558 590 1019 -66 163 -225 322 -388
388 -125 51 -276 71 -394 52z"/>
</g>
</svg>
