<svg width="1266" height="502" viewBox="0 0 1266 502" fill="none" xmlns="http://www.w3.org/2000/svg" xmlns:xlink="http://www.w3.org/1999/xlink">
<path d="M306.329,211.376C367.561,211.376 417.201,164.058 417.201,105.688C417.201,47.318 367.561,0 306.329,0C245.097,0 195.459,47.318 195.459,105.688C195.459,164.058 245.097,211.376 306.329,211.376Z" fill="#C15191"/>
<path d="M303.711,422.079C327.792,422.079 347.314,403.496 347.314,380.573C347.314,357.649 327.792,339.066 303.711,339.066C279.63,339.066 260.108,357.649 260.108,380.573C260.108,403.496 279.63,422.079 303.711,422.079Z" fill="#C15191"/>
<path d="M1171.241,417.948C1195.323,417.948 1214.844,399.365 1214.844,376.441C1214.844,353.518 1195.323,334.935 1171.241,334.935C1147.16,334.935 1127.638,353.518 1127.638,376.441C1127.638,399.365 1147.16,417.948 1171.241,417.948Z" fill="#C15191"/>
</svg>
