<svg width="120.000000" height="50.000000" viewBox="0 0 120 50" fill="none" xmlns="http://www.w3.org/2000/svg" xmlns:xlink="http://www.w3.org/1999/xlink">
	<desc>
			Created with Pixso.
	</desc>
	<defs>
		<clipPath id="clip37_19126">
			<rect id="logo 2" width="120.000000" height="50.000000" fill="white" fill-opacity="0"/>
		</clipPath>
	</defs>
	<rect id="logo 2" width="120.000000" height="50.000000" fill="#FFFFFF" fill-opacity="0"/>
	<g clip-path="url(#clip37_19126)">
		<path id="Vector" d="M39.54 10.56C39.54 16.4 34.84 21.13 29.03 21.13C23.23 21.13 18.52 16.4 18.52 10.56C18.52 4.73 23.23 0 29.03 0C34.84 0 39.54 4.73 39.54 10.56Z" fill="#C15191" fill-opacity="1.000000" fill-rule="evenodd"/>
		<path id="Vector" d="M5.85 6.2L0 6.2L0 1.27L17.4 1.27L17.4 6.2L11.54 6.2L11.54 19.77L5.81 19.77L5.85 6.2Z" fill="#1D1D1B" fill-opacity="1.000000" fill-rule="evenodd"/>
		<path id="Vector" d="M60.22 19.77L54.5 19.77L54.5 15.25C53.3 15.8 51.99 16.07 50.68 16.04C45.14 16.04 41.94 13.58 41.94 8.01L41.94 1.28L47.66 1.28L47.66 8.25C47.66 10.37 48.81 11.31 50.84 11.31C52.11 11.32 53.37 11.04 54.52 10.5L54.52 1.27L60.24 1.27L60.22 19.77Z" fill="#1D1D1B" fill-opacity="1.000000" fill-rule="evenodd"/>
		<path id="Vector" d="M62.99 1.27L68.72 1.27L68.72 8.1L70.85 8.1L75.26 1.27L81.63 1.27L75.52 10.1L82.08 19.77L75.4 19.77L70.74 12.74L68.64 12.74L68.64 19.77L62.99 19.77L62.99 1.27Z" fill="#1D1D1B" fill-opacity="1.000000" fill-rule="evenodd"/>
		<path id="Vector" d="M102.49 19.77L96.81 19.77L96.81 10.07L89.56 19.77L83.83 19.77L83.83 1.27L89.56 1.27L89.56 11.11L96.81 1.27L102.49 1.27L102.49 19.77Z" fill="#1D1D1B" fill-opacity="1.000000" fill-rule="evenodd"/>
		<path id="Vector" d="M6.42 38.32L9.42 38.32C10.88 38.32 11.8 37.49 11.8 36.4C11.8 35.31 10.85 34.7 9.03 34.7C7.22 34.7 5.83 35.56 5.83 36.9L0.53 36.51C1 32.66 3.75 30.22 9.58 30.22C14.35 30.22 17.05 32.36 17.05 35.42C17.09 36.37 16.83 37.31 16.32 38.11C15.81 38.91 15.06 39.53 14.19 39.89C16.39 40.58 17.82 41.96 17.82 44.45C17.82 47.66 15.14 50 9.78 50C3.67 49.96 1 47.53 0.53 43.7L5.83 43.23C5.83 44.49 7.3 45.42 9.25 45.42C11.21 45.42 12.3 44.79 12.3 43.6C12.3 42.56 11.07 41.85 9.31 41.85L6.45 41.85L6.42 38.32Z" fill="#1D1D1B" fill-opacity="1.000000" fill-rule="evenodd"/>
		<path id="Vector" d="M20.34 30.85L30.93 30.85C35.24 30.85 38.5 33.25 38.5 38.18C38.5 43.11 35.24 45.48 30.93 45.48L26.03 45.48L26.03 49.32L20.31 49.32L20.34 30.85ZM26.07 35.78L26.07 40.59L30.38 40.59C31.68 40.59 32.83 40.05 32.83 38.25C32.86 37.92 32.82 37.59 32.7 37.28C32.59 36.97 32.41 36.69 32.17 36.46C31.94 36.22 31.66 36.05 31.35 35.94C31.04 35.83 30.7 35.8 30.38 35.83L26.07 35.78Z" fill="#1D1D1B" fill-opacity="1.000000" fill-rule="evenodd"/>
		<path id="Vector" d="M40.74 30.85L56.41 30.85L56.41 35.78L46.43 35.78L46.43 38.08L55.57 38.08L55.57 42.13L46.43 42.13L46.43 44.41L56.41 44.41L56.41 49.35L40.74 49.35L40.74 30.85Z" fill="#1D1D1B" fill-opacity="1.000000" fill-rule="evenodd"/>
		<path id="Vector" d="M72.27 42.57L64.82 42.57L64.82 49.35L59.17 49.35L59.17 30.85L64.9 30.85L64.9 37.64L72.35 37.64L72.35 30.85L78.07 30.85L78.07 49.35L72.35 49.35L72.27 42.57Z" fill="#1D1D1B" fill-opacity="1.000000" fill-rule="evenodd"/>
		<path id="Vector" d="M99.31 49.35L93.58 49.35L93.58 39.66L86.33 49.35L80.69 49.35L80.69 30.85L86.37 30.85L86.37 40.69L93.62 30.85L99.35 30.85L99.31 49.35Z" fill="#1D1D1B" fill-opacity="1.000000" fill-rule="evenodd"/>
		<path id="Vector" d="M120 49.35L114.27 49.35L114.27 44.82L111.08 44.82L107.97 49.35L101.29 49.35L105.62 43.59C104.41 43.13 103.37 42.29 102.66 41.2C101.94 40.11 101.59 38.82 101.65 37.51C101.65 32.71 104.84 30.79 109.03 30.79L119.98 30.79L120 49.35ZM109.56 35.78C109.27 35.75 108.97 35.78 108.69 35.88C108.41 35.98 108.16 36.13 107.95 36.34C107.73 36.55 107.57 36.8 107.47 37.08C107.37 37.36 107.33 37.66 107.36 37.96C107.36 39.39 108.19 40.02 109.56 40.02L114.34 40.02L114.34 35.78L109.56 35.78Z" fill="#1D1D1B" fill-opacity="1.000000" fill-rule="evenodd"/>
		<path id="Vector" d="M32.91 38.05C32.91 40.34 31.07 42.2 28.78 42.2C26.5 42.2 24.65 40.34 24.65 38.05C24.65 35.76 26.5 33.9 28.78 33.9C31.07 33.9 32.91 35.76 32.91 38.05Z" fill="#C15191" fill-opacity="1.000000" fill-rule="evenodd"/>
		<path id="Vector" d="M115.15 37.64C115.15 39.93 113.3 41.79 111.01 41.79C108.73 41.79 106.88 39.93 106.88 37.64C106.88 35.35 108.73 33.49 111.01 33.49C113.3 33.49 115.15 35.35 115.15 37.64Z" fill="#C15191" fill-opacity="1.000000" fill-rule="evenodd"/>
	</g>
</svg>
