<svg width="44" height="78" viewBox="0 0 44 78" fill="none" xmlns="http://www.w3.org/2000/svg" xmlns:xlink="http://www.w3.org/1999/xlink">
<path d="M41.671,39.921L5.421,76.171C4.906,76.652 4.224,76.913 3.52,76.901C2.816,76.888 2.144,76.603 1.645,76.105C1.147,75.607 0.862,74.935 0.85,74.23C0.837,73.526 1.099,72.844 1.579,72.329L35.903,38L1.579,3.671C1.099,3.156 0.837,2.474 0.85,1.77C0.862,1.066 1.147,0.394 1.645,-0.105C2.144,-0.603 2.816,-0.888 3.52,-0.9C4.224,-0.913 4.906,-0.651 5.421,-0.171L41.671,36.079C42.181,36.589 42.466,37.28 42.466,38C42.466,38.721 42.181,39.412 41.671,39.921Z" fill="#000000"/>
</svg>
