<svg width="72" height="36" viewBox="0 0 72 36" fill="none" xmlns="http://www.w3.org/2000/svg" xmlns:xlink="http://www.w3.org/1999/xlink">
<path d="M72,32.4C72,33.355 71.684,34.27 71.121,34.946C70.559,35.621 69.796,36 69,36L3,36C2.204,36 1.441,35.621 0.879,34.946C0.316,34.27 0,33.355 0,32.4C0,31.445 0.316,30.53 0.879,29.854C1.441,29.179 2.204,28.8 3,28.8L69,28.8C69.796,28.8 70.559,29.179 71.121,29.854C71.684,30.53 72,31.445 72,32.4ZM3,7.2L69,7.2C69.796,7.2 70.559,6.821 71.121,6.146C71.684,5.47 72,4.555 72,3.6C72,2.645 71.684,1.73 71.121,1.054C70.559,0.379 69.796,0 69,0L3,0C2.204,0 1.441,0.379 0.879,1.054C0.316,1.73 0,2.645 0,3.6C0,4.555 0.316,5.47 0.879,6.146C1.441,6.821 2.204,7.2 3,7.2Z" fill="#111111"/>
</svg>
