<svg width="1440.000000" height="900.000000" viewBox="0 0 1440 900" fill="none" xmlns="http://www.w3.org/2000/svg" xmlns:xlink="http://www.w3.org/1999/xlink">
	<desc>
			Created with Pixso.
	</desc>
	<defs>
		<filter id="filter_17_23862_dd" x="400.000000" y="-502.988281" width="1585.440430" height="1539.634766" filterUnits="userSpaceOnUse" color-interpolation-filters="sRGB">
			<feFlood flood-opacity="0" result="BackgroundImageFix"/>
			<feBlend mode="normal" in="SourceGraphic" in2="BackgroundImageFix" result="shape"/>
			<feGaussianBlur stdDeviation="166.667" result="effect_layerBlur_1"/>
		</filter>
		<filter id="filter_17_23864_dd" x="460.000000" y="-138.164062" width="1432.001953" height="1471.017578" filterUnits="userSpaceOnUse" color-interpolation-filters="sRGB">
			<feFlood flood-opacity="0" result="BackgroundImageFix"/>
			<feBlend mode="normal" in="SourceGraphic" in2="BackgroundImageFix" result="shape"/>
			<feGaussianBlur stdDeviation="133.333" result="effect_layerBlur_1"/>
		</filter>
		<filter id="filter_17_23866_dd" x="-448.248047" y="-419.132812" width="1671.371094" height="1736.238281" filterUnits="userSpaceOnUse" color-interpolation-filters="sRGB">
			<feFlood flood-opacity="0" result="BackgroundImageFix"/>
			<feBlend mode="normal" in="SourceGraphic" in2="BackgroundImageFix" result="shape"/>
			<feGaussianBlur stdDeviation="133.333" result="effect_layerBlur_1"/>
		</filter>
		<filter id="filter_17_23868_dd" x="26.000000" y="-86.503906" width="1373.000000" height="804.203125" filterUnits="userSpaceOnUse" color-interpolation-filters="sRGB">
			<feFlood flood-opacity="0" result="BackgroundImageFix"/>
			<feBlend mode="normal" in="SourceGraphic" in2="BackgroundImageFix" result="shape"/>
			<feGaussianBlur stdDeviation="66.6667" result="effect_layerBlur_1"/>
		</filter>
		<filter id="filter_17_23870_dd" x="-39.000000" y="164.132812" width="1493.000000" height="922.810547" filterUnits="userSpaceOnUse" color-interpolation-filters="sRGB">
			<feFlood flood-opacity="0" result="BackgroundImageFix"/>
			<feBlend mode="normal" in="SourceGraphic" in2="BackgroundImageFix" result="shape"/>
			<feGaussianBlur stdDeviation="100" result="effect_layerBlur_1"/>
		</filter>
		<clipPath id="clip17_23856">
			<rect id="Background 7 block 1" width="1440.000000" height="900.000000" fill="white" fill-opacity="0"/>
		</clipPath>
	</defs>
	<rect id="Background 7 block 1" width="1440.000000" height="900.000000" fill="#FFFFFF" fill-opacity="0"/>
	<g clip-path="url(#clip17_23856)">
		<mask id="mask17_23858" mask-type="alpha" maskUnits="userSpaceOnUse" x="0.000000" y="0.000000" width="1440.000000" height="900.000000">
			<path id="Vector" d="M0 0L1440 0L1440 900L0 900L0 0Z" fill="#000000" fill-opacity="1.000000" fill-rule="evenodd"/>
		</mask>
		<g mask="url(#mask17_23858)">
			<path id="Vector" d="M0 0L1440 0L1440 900L0 900L0 0Z" fill="#FFFFFF" fill-opacity="1.000000" fill-rule="evenodd"/>
			<g filter="url(#filter_17_23862_dd)">
				<path id="Vector" d="M1234 159.78C1407.72 363.08 1134.5 565.98 1420.5 533.12C1492.64 524.84 1525.36 -2.99 1407.5 -2.99C1301.89 -2.99 900 111.3 900 139.37C900 307.51 1149 60.31 1234 159.78Z" fill="#C15191" fill-opacity="1.000000" fill-rule="nonzero"/>
			</g>
			<g filter="url(#filter_17_23864_dd)">
				<path id="Vector" d="M1126.71 932.85C1572.86 932.85 1454.96 876.86 1468.99 608.41C1468.99 273.91 1635.82 261.83 1071.09 261.83C880.69 261.83 993.85 444.66 993.85 608.41C993.85 772.17 617.6 932.85 1126.71 932.85Z" fill="#E4ECF7" fill-opacity="1.000000" fill-rule="nonzero"/>
			</g>
			<g filter="url(#filter_17_23866_dd)">
				<path id="Vector" d="M283.31 917.1C-136.03 917.1 -38.4 844.91 -38.4 497.34C-38.4 37.83 25 -89.11 790 14.93C968.94 14.93 364.49 285.46 364.49 497.34C364.49 709.2 1212 917.1 283.31 917.1Z" fill="#E4ECF7" fill-opacity="1.000000" fill-rule="nonzero"/>
			</g>
			<g filter="url(#filter_17_23868_dd)">
				<path id="Vector" d="M712.5 517.69C981.18 517.69 1199 461.21 1199 337.5C1199 213.78 981.18 113.49 712.5 113.49C443.81 113.49 226 213.78 226 337.5C226 461.21 443.81 517.69 712.5 517.69Z" fill="#FFFFFF" fill-opacity="1.000000" fill-rule="nonzero"/>
			</g>
			<g filter="url(#filter_17_23870_dd)">
				<path id="Vector" d="M707.5 786.94C954.09 786.94 1154 714.68 1154 625.53C1154 536.39 954.09 464.13 707.5 464.13C460.9 464.13 261 536.39 261 625.53C261 714.68 460.9 786.94 707.5 786.94Z" fill="#FFFFFF" fill-opacity="1.000000" fill-rule="nonzero"/>
			</g>
		</g>
	</g>
</svg>
